<svg width="512" height="512" viewBox="0 0 512 512" fill="none" xmlns="http://www.w3.org/2000/svg">
<path d="M332.737 189.865L326.887 198.626C322.334 205.443 319.754 213.387 319.431 221.579L319.017 232.084C318.67 240.878 315.722 249.373 310.547 256.492C305.371 263.611 298.2 269.035 289.941 272.077L280.108 275.7C272.388 278.544 265.608 283.472 260.521 289.938L254.078 298.128C248.627 305.056 241.241 310.209 232.856 312.933C224.472 315.656 215.468 315.827 206.986 313.424L196.968 310.587C189.04 308.341 180.644 308.341 172.716 310.587L162.698 313.424C154.217 315.827 145.212 315.656 136.828 312.932C128.444 310.209 121.057 305.056 115.606 298.128L109.162 289.937C104.075 283.472 97.2956 278.543 89.5761 275.7L79.7431 272.077C71.4841 269.035 64.3131 263.611 59.1374 256.492C53.9617 249.373 51.014 240.878 50.6672 232.084L50.2531 221.58C49.9302 213.388 47.3498 205.444 42.7969 198.627L36.9462 189.865C32.0618 182.551 29.455 173.953 29.455 165.158C29.455 156.363 32.0618 147.765 36.9462 140.451L42.7959 131.691C47.3488 124.873 49.9292 116.93 50.2521 108.738L50.6662 98.2329C51.013 89.4381 53.9607 80.9438 59.1364 73.8247C64.312 66.7056 71.483 61.2816 79.7421 58.2391L89.5751 54.617C97.295 51.773 104.075 46.8443 109.162 40.3785L115.605 32.1885C121.056 25.2603 128.442 20.1075 136.826 17.384C145.21 14.6605 154.215 14.4891 162.696 16.8914L172.714 19.729C180.642 21.9749 189.038 21.9749 196.966 19.729L203.692 17.8231L206.983 17.9053C215.465 15.5026 224.469 15.6738 232.853 18.3971C241.238 21.1204 248.624 26.2731 254.075 33.2013L260.519 41.3923C265.606 47.8578 272.386 52.7862 280.105 55.6299L289.938 59.2519C306.829 65.4741 317.29 80.2454 317.999 98.2309L318.413 108.735C318.736 116.927 322.332 125.885 326.884 132.703L331.72 140.449C341.71 155.408 342.724 174.908 332.737 189.865Z" fill="#FFD271"/>
<path d="M311.726 485.628L279.757 495.776H182.483L144.981 485.628L116.11 495.776H72.8978C64.3933 495.776 57.2496 489.38 56.3139 480.926L23.9113 188.053L30.7048 167.874L349.128 157.725L311.726 485.628Z" fill="#FE646F"/>
<path d="M182.483 495.78H116.111L78.713 157.728H145.085L152.334 223.252L152.555 316.988L177.257 448.538L182.483 495.78Z" fill="#F2FBFF"/>
<path d="M171.928 400.403C159.862 376.584 153.062 349.65 153.062 321.122C153.062 306.244 154.909 291.802 158.39 278.021L171.928 400.403Z" fill="#F2FBFF"/>
<path d="M98.3223 115.539C97.0046 115.541 95.7092 115.2 94.5629 114.551C93.4166 113.901 92.4588 112.965 91.7835 111.833C87.999 105.504 86.904 98.0797 88.7044 90.9289C90.5037 83.7772 94.9803 77.7549 101.31 73.9705C114.373 66.1591 131.36 70.4317 139.173 83.4971C139.699 84.3552 140.049 85.3092 140.204 86.3038C140.359 87.2983 140.315 88.3137 140.074 89.2911C139.834 90.2686 139.403 91.1887 138.804 91.9981C138.206 92.8076 137.453 93.4904 136.589 94.007C135.726 94.5236 134.768 94.8637 133.772 95.0076C132.775 95.1516 131.761 95.0965 130.786 94.8457C129.811 94.5948 128.896 94.1531 128.093 93.5461C127.29 92.9391 126.615 92.1789 126.108 91.3095C122.604 85.4497 114.984 83.5316 109.122 87.0359C107.724 87.867 106.504 88.9673 105.533 90.2732C104.563 91.579 103.861 93.0644 103.469 94.6433C103.067 96.22 102.983 97.8606 103.219 99.4703C103.456 101.08 104.01 102.627 104.849 104.021C105.54 105.175 105.912 106.493 105.928 107.838C105.944 109.184 105.602 110.509 104.939 111.68C104.276 112.851 103.314 113.825 102.152 114.503C100.989 115.181 99.6679 115.538 98.3223 115.539ZM219.73 85.2802C218.491 85.2799 217.27 84.9772 216.175 84.3982C215.079 83.8193 214.142 82.9816 213.443 81.958C212.745 80.9344 212.307 79.7558 212.168 78.5246C212.029 77.2934 212.192 76.0468 212.644 74.893C213.241 73.3795 213.532 71.7625 213.5 70.1358C213.467 68.5091 213.113 66.9049 212.456 65.4162C211.808 63.9241 210.87 62.5754 209.697 61.448C208.524 60.3206 207.139 59.4369 205.622 58.848C204.108 58.2507 202.491 57.9597 200.864 57.992C199.237 58.0242 197.633 58.379 196.144 59.0357C194.652 59.6842 193.303 60.6221 192.176 61.7952C191.048 62.9682 190.165 64.3531 189.576 65.8698C189.217 66.8076 188.676 67.6651 187.984 68.3929C187.292 69.1207 186.463 69.7044 185.545 70.1103C184.626 70.5162 183.636 70.7364 182.632 70.7582C181.628 70.7799 180.63 70.6028 179.695 70.237C178.76 69.8712 177.906 69.3239 177.183 68.6268C176.461 67.9296 175.883 67.0964 175.484 66.175C175.084 65.2536 174.871 64.2623 174.857 63.2582C174.842 62.2542 175.027 61.2571 175.399 60.3246C178.085 53.457 183.286 48.0458 190.041 45.0894C196.798 42.1331 204.301 41.985 211.166 44.6703C218.034 47.3567 223.445 52.5568 226.401 59.3118C229.358 66.0677 229.506 73.5707 226.82 80.4383C226.262 81.8648 225.287 83.0901 224.022 83.9539C222.757 84.8177 221.261 85.2799 219.73 85.2802ZM158.961 134.751C157.283 134.749 155.653 134.193 154.323 133.17C152.994 132.147 152.04 130.713 151.609 129.092C149.716 121.965 150.712 114.527 154.413 108.148C158.114 101.77 164.077 97.215 171.206 95.3223C178.331 93.4296 185.769 94.4251 192.149 98.1264C198.527 101.828 203.082 107.791 204.976 114.918C205.493 116.869 205.215 118.946 204.202 120.692C203.189 122.438 201.523 123.71 199.572 124.228C195.509 125.31 191.343 122.888 190.262 118.825C189.414 115.628 187.37 112.953 184.509 111.292C181.648 109.632 178.31 109.186 175.114 110.034C173.54 110.447 172.064 111.169 170.771 112.157C169.478 113.144 168.393 114.379 167.58 115.788C166.76 117.193 166.226 118.747 166.01 120.359C165.795 121.971 165.901 123.611 166.323 125.182C166.842 127.133 166.564 129.21 165.55 130.956C164.537 132.702 162.872 133.974 160.921 134.492C160.282 134.664 159.623 134.751 158.961 134.751Z" fill="#FFC55E"/>
<path d="M332.734 189.869L326.888 198.628C322.333 205.445 319.751 213.39 319.429 221.584L319.013 232.088C318.667 240.882 315.719 249.375 310.544 256.493C305.368 263.611 298.196 269.033 289.937 272.073L280.103 275.696C272.387 278.547 265.609 283.475 260.516 289.935L254.072 298.125C242.929 312.303 224.336 318.341 206.982 313.429L203.694 312.496C211.559 309.679 218.468 304.697 223.626 298.125L230.07 289.935C235.163 283.475 241.941 278.547 249.657 275.696L259.491 272.073C267.75 269.033 274.922 263.611 280.098 256.493C285.273 249.375 288.221 240.882 288.567 232.088L288.983 221.584C289.308 213.384 291.886 205.447 296.442 198.628L302.288 189.869C312.274 174.91 312.274 155.404 302.288 140.455L296.442 131.687C291.887 124.873 289.305 116.931 288.983 108.741L288.567 98.237C287.857 80.2434 276.389 64.4622 259.491 58.2411L249.657 54.618C241.944 51.7764 235.165 46.8441 230.07 40.3794L223.626 32.1895C218.465 25.6232 211.556 20.6458 203.694 17.8291L206.982 16.8954C215.463 14.49 224.468 14.6596 232.852 17.3827C241.237 20.1059 248.623 25.2597 254.072 32.1895L260.516 40.3794C265.606 46.8425 272.385 51.7707 280.103 54.618L289.937 58.2411C298.198 61.2819 305.37 66.7057 310.546 73.8256C315.722 80.9455 318.669 89.4412 319.013 98.237L319.429 108.741C319.754 116.931 322.332 124.877 326.888 131.687L332.734 140.455C342.72 155.404 342.72 174.91 332.734 189.869Z" fill="#FFC55E"/>
<path d="M351.396 188.049L214.061 177.9L183.61 188.049H18.2859C8.18693 188.049 0 179.861 0 169.762C0 159.663 8.18693 151.475 18.2859 151.475H250.824L271.959 161.624L351.396 151.475C361.495 151.475 369.682 159.662 369.682 169.762C369.683 179.861 361.496 188.049 351.396 188.049Z" fill="#95C7F9"/>
<path d="M512 488.94C512 493.152 508.59 496.552 504.389 496.552H337.95C360.288 495.405 373.526 490.067 392.899 481.329H504.389C508.59 481.329 512 484.739 512 488.94Z" fill="#1A4C65"/>
<path d="M309.747 495.78H279.301C254.929 493.164 232.05 475.412 211.702 463.864C199.176 456.755 187.609 458.299 177.244 448.442C143.592 416.438 122.615 371.229 122.615 321.122C122.615 284.919 133.566 251.274 152.34 223.319C155.507 218.603 169.045 214.048 172.643 209.671C179.051 201.875 175.969 194.641 183.609 188.053H214.055C201.051 199.265 189.71 202.202 180.449 216.741C170.544 232.293 163.02 259.656 158.387 278.021C154.908 291.812 182.482 306.256 182.482 321.127C182.482 349.72 159.892 376.712 172.011 400.572C184.153 424.477 201.602 455.381 222.809 471.433C247.511 490.13 277.307 492.297 309.747 495.78Z" fill="#DFF6FD"/>
<path d="M309.747 495.78H279.301C239.925 491.548 204.445 474.306 177.246 448.437L171.928 400.403C181.774 419.843 213.216 423.103 229.247 437.551C255.963 461.633 272.026 491.727 309.747 495.78ZM158.39 278.021L152.342 223.329C161.142 210.227 171.658 198.363 183.61 188.053H214.056C202.14 198.329 208.461 223.295 199.659 236.391C188.58 252.873 163.384 258.215 158.39 278.021Z" fill="#FF555A"/>
<path d="M282.985 151.477H252.539C246.095 153.212 239.793 155.303 233.663 157.728C215.398 164.961 198.478 175.212 183.61 188.053H214.056L282.985 151.477Z" fill="#4CA3F6"/>
<path d="M503.374 321.126C503.374 418.143 425.74 495.776 328.723 495.776C323.826 495.776 318.974 496.591 314.178 496.197C223.966 488.803 153.058 413.245 153.058 321.126C153.058 229.032 223.927 153.489 314.105 146.061C318.926 145.664 323.8 146.476 328.723 146.476C425.74 146.476 503.374 224.109 503.374 321.126Z" fill="#275E7C"/>
<path d="M436.044 331.303C426.303 334.468 416.249 334.994 407.37 331.605C395.609 327.116 385.907 317.539 381.714 304.635C374.582 282.685 386.006 259.159 407.337 251.032C408.014 250.774 408.701 251.547 409.397 251.32C432.044 243.962 455.354 255.341 462.712 277.988C470.07 300.635 458.691 323.944 436.044 331.303ZM352.344 425.894C338.347 406.628 342.618 379.666 361.883 365.669C364.994 363.405 368.393 361.567 371.991 360.204C389.721 353.497 410.429 360.148 422.109 376.223C426.862 382.764 428.493 389.958 429.162 397.156C430.463 411.158 425.294 425.174 412.571 434.419C400.382 443.274 385.111 445.832 371.993 440.892C364.115 437.927 357.282 432.711 352.344 425.894ZM237.484 375.207C242.449 368.35 249.331 363.114 257.265 360.16C270.353 355.28 285.562 357.857 297.709 366.683C308.481 374.51 313.55 385.756 314.374 397.517C315.024 406.791 313.418 416.385 307.248 424.879C295.599 440.913 274.968 447.574 257.269 440.949C253.62 439.581 250.173 437.725 247.022 435.432C227.758 421.435 223.488 394.471 237.484 375.207ZM250.196 251.319C272.843 258.678 284.222 281.988 276.864 304.634C269.505 327.281 246.195 338.661 223.549 331.302C222.907 331.094 222.274 331.887 221.65 331.651C200.216 323.582 188.716 299.992 195.866 277.987C200.102 264.95 209.961 255.311 221.885 250.881C230.674 247.617 240.586 248.198 250.196 251.319ZM371.898 223.798C371.898 247.611 353.609 265.9 329.796 265.9C324.438 265.9 319.309 265.938 314.577 264.152C298.274 258.001 286.679 242.254 286.679 223.798C286.679 205.342 298.275 189.594 314.579 183.444C319.311 181.659 324.44 181.697 329.796 181.697C353.609 181.697 371.898 199.985 371.898 223.798Z" fill="#F2FBFF"/>
<path d="M349.371 321.126C349.371 333.089 340.688 341.772 328.724 341.772C325.462 341.772 322.368 342.066 319.593 340.775C312.192 337.329 307.062 329.826 307.062 321.126C307.062 312.485 312.121 305.025 319.44 301.549C322.255 300.213 325.402 300.48 328.724 300.48C340.688 300.478 349.371 309.163 349.371 321.126Z" fill="#95C7F9"/>
<path d="M504.389 321.122C504.389 418.143 425.736 496.795 328.725 496.795C323.6 496.795 318.516 496.572 313.502 496.136C403.389 488.423 473.943 413.018 473.943 321.122C473.943 229.236 403.389 153.831 313.502 146.118C318.516 145.682 323.6 145.459 328.725 145.459C425.736 145.459 504.389 224.111 504.389 321.122Z" fill="#1A4C65"/>
<path d="M436.047 332.316C426.345 335.462 416.349 334.995 407.499 331.646C428.933 323.578 440.422 299.992 433.277 277.99C429.075 265.03 419.322 255.44 407.499 250.974C408.128 250.731 408.758 250.507 409.397 250.305C432.049 242.947 456.365 255.338 463.723 277.99C471.081 300.632 458.689 324.958 436.047 332.316ZM412.574 435.436C400.385 444.286 385.121 445.829 372.009 440.896C375.531 439.577 378.941 437.76 382.128 435.436C401.39 421.431 405.662 394.476 391.667 375.204C386.723 368.38 379.879 363.163 371.989 360.204C389.719 353.496 410.422 359.129 422.113 375.204C436.108 394.476 431.836 421.431 412.574 435.436ZM297.85 435.436C285.662 444.286 270.398 445.829 257.286 440.896C260.807 439.577 264.217 437.76 267.404 435.436C286.666 421.431 290.939 394.476 276.944 375.204C272 368.38 265.156 363.163 257.266 360.204C274.995 353.496 295.699 359.129 307.39 375.204C321.385 394.476 317.112 421.431 297.85 435.436ZM277.881 304.63C270.523 327.282 246.196 339.674 223.545 332.316C222.905 332.103 222.266 331.89 221.647 331.646C233.47 327.181 243.233 317.59 247.435 304.63C254.579 282.628 243.091 259.032 221.647 250.974C230.486 247.625 240.493 247.148 250.195 250.305C272.847 257.662 285.238 281.989 277.881 304.63ZM372.913 223.796C372.913 247.615 353.61 266.918 329.801 266.918C324.443 266.918 319.307 265.944 314.578 264.147C330.877 257.997 342.467 242.257 342.467 223.796C342.467 205.346 330.877 189.605 314.578 183.445C319.307 181.659 324.443 180.685 329.801 180.685C353.61 180.685 372.913 199.987 372.913 223.796Z" fill="#DFF6FD"/>
<path d="M350.383 321.122C350.383 333.087 340.691 342.789 328.725 342.789C325.457 342.789 322.362 342.069 319.592 340.77C326.99 337.329 332.115 329.819 332.115 321.122C332.115 312.435 326.99 304.925 319.592 301.484C322.451 300.147 325.569 299.458 328.725 299.465C340.691 299.465 350.383 309.167 350.383 321.122Z" fill="#4CA3F6"/>
</svg>
